<?xml version="1.0" encoding="UTF-8" standalone="no"?>
<!DOCTYPE svg PUBLIC "-//W3C//DTD SVG 1.1//EN" "http://www.w3.org/Graphics/SVG/1.1/DTD/svg11.dtd">
<svg width="100%" height="100%" viewBox="0 0 1766 396" version="1.1" xmlns="http://www.w3.org/2000/svg" xmlns:xlink="http://www.w3.org/1999/xlink" xml:space="preserve" xmlns:serif="http://www.serif.com/" style="fill-rule:evenodd;clip-rule:evenodd;stroke-linejoin:round;stroke-miterlimit:2;">
    <g transform="matrix(1,0,0,1,-203.93,-1322.54)">
        <g transform="matrix(1.03968,0,0,0.971014,-1291.16,44.0497)">
            <ellipse cx="1628.33" cy="1519.71" rx="171.907" ry="188.279" style="fill:white;"/>
        </g>
        <g transform="matrix(1.16655,0,0,1.16655,-158.892,-114.285)">
            <text x="678.749px" y="1506.07px" style="font-family:'LEMONMILK-Regular', 'LEMON MILK';font-size:266.667px;">C</text>
            <text x="865.478px" y="1481.07px" style="font-family:'LEMONMILK-Regular', 'LEMON MILK';font-size:198.511px;">H<tspan x="1004.19px 1128.75px 1297.42px " y="1481.07px 1481.07px 1481.07px ">RON</tspan></text>
            <text x="1445.15px" y="1481.07px" style="font-family:'LEMONMILK-Regular', 'LEMON MILK';font-size:266.667px;">.</text>
            <text x="1508.96px" y="1481.07px" style="font-family:'LEMONMILK-Bold', 'LEMON MILK';font-weight:700;font-size:198.511px;">O<tspan x="1686.15px " y="1481.07px ">S</tspan></text>
        </g>
        <g id="Sin-título-1.svg" serif:id="Sin título-1.svg" transform="matrix(0.38575,0,0,0.38575,401.434,1520.05)">
            <g transform="matrix(1,0,0,1,-512,-512)">
                <g transform="matrix(1.22259,0,0,1.22259,-114.109,-114.685)">
                    <path d="M490.5,101.5C622.122,99.844 732.289,147.177 821,243.5C884.977,318.029 919.643,404.695 925,503.5C926.563,644.854 872.063,758.687 761.5,845C660.768,919.351 548.768,944.351 425.5,920C311.58,892.166 222.747,829.333 159,731.5C128.843,683.035 110.176,630.369 103,573.5C86.993,414.407 141.159,285.241 265.5,186C332.398,136.563 407.398,108.396 490.5,101.5ZM507.5,116.5C513.386,115.343 518.219,117.01 522,121.5C523.18,125.217 524.513,128.884 526,132.5C526.903,133.701 528.069,134.535 529.5,135C653.937,147.273 752.437,203.773 825,304.5C864.029,364.249 886.362,429.916 892,501.5C896.193,503.353 900.693,504.519 905.5,505C913.5,512 913.5,519 905.5,526C900.752,526.674 896.252,527.84 892,529.5C888.827,571.699 880.161,612.699 866,652.5C864.938,653.097 863.772,653.43 862.5,653.5C854.943,651.42 847.277,650.586 839.5,651C838.333,652.167 837.167,653.333 836,654.5C831.922,662.991 827.588,671.324 823,679.5C821.155,678.95 819.655,677.95 818.5,676.5C837.51,633.796 849.177,589.129 853.5,542.5C849.655,538.967 845.822,535.3 842,531.5C833.131,514.74 836.631,501.074 852.5,490.5C845.099,402.872 810.099,328.372 747.5,267C721.855,243.019 693.688,222.519 663,205.5C662.333,204.5 662.333,203.5 663,202.5C665.253,198.497 667.086,194.33 668.5,190C668.561,188.289 667.894,186.956 666.5,186C664.086,184.115 661.419,183.448 658.5,184C655.472,189.217 652.305,194.384 649,199.5C616.456,184.696 582.456,174.696 547,169.5C544.849,169.643 543.182,170.643 542,172.5C538.975,177.541 536.808,182.874 535.5,188.5C548.807,191.154 560.474,196.987 570.5,206C576.949,206.278 583.282,207.278 589.5,209C602.391,213.446 615.057,218.446 627.5,224C622.467,224.171 617.467,224.671 612.5,225.5C615.132,229.931 618.132,234.098 621.5,238C632.833,238.333 644.167,238.667 655.5,239C668.484,245.157 680.484,252.823 691.5,262C672.167,262.333 652.833,262.667 633.5,263C633.178,267.723 633.178,272.556 633.5,277.5C659.835,277.333 686.169,277.5 712.5,278C720.803,285.302 728.803,292.969 736.5,301C702.168,301.5 667.835,301.667 633.5,301.5C632.502,306.476 632.002,311.476 632,316.5C670.257,316.219 708.757,316.052 747.5,316C754.751,323.085 761.084,330.918 766.5,339.5C720.504,340.333 674.504,340.833 628.5,341C626.277,341.652 625.11,343.152 625,345.5C624.612,348.849 624.779,352.183 625.5,355.5C676.171,355.167 726.838,355.5 777.5,356.5C781.935,363.6 785.935,370.933 789.5,378.5C732.503,379.333 675.503,379.833 618.5,380C614.534,384.967 610.201,389.634 605.5,394C669.503,394.167 733.503,394.667 797.5,395.5C801.11,403.721 804.443,412.054 807.5,420.5C791.172,421.317 774.839,421.983 758.5,422.5C704.174,421.872 649.508,421.872 594.5,422.5C594.335,426.182 594.501,429.848 595,433.5C595.249,434.624 595.749,435.624 596.5,436.5C668.048,436.489 739.715,436.489 811.5,436.5C813.801,445.038 815.467,453.704 816.5,462.5C754.801,462.022 693.135,462.522 631.5,464C639.181,468.842 647.181,473.175 655.5,477C710.166,477.5 764.832,477.667 819.5,477.5C820.354,486.805 820.687,496.139 820.5,505.5C784.165,505.333 747.832,505.5 711.5,506C721.001,512.585 731.335,517.252 742.5,520C768.189,519.977 794.189,520.477 820.5,521.5C821.075,530.481 820.741,539.481 819.5,548.5L750.5,548.5C751.185,553.239 752.185,557.906 753.5,562.5C775.205,562.109 796.872,562.776 818.5,564.5C816.833,573.167 815.167,581.833 813.5,590.5L760.5,590.5C761.167,594.833 761.833,599.167 762.5,603.5C778.209,603.532 793.709,603.532 809,603.5C809.5,604 810,604.5 810.5,605C808.497,614.008 805.497,622.675 801.5,631C790.839,631.5 780.172,631.667 769.5,631.5C770.007,635.86 770.673,640.193 771.5,644.5C780.173,644.334 788.84,644.5 797.5,645C794.038,652.091 790.705,659.258 787.5,666.5C784.296,667.204 781.129,667.87 778,668.5C778.957,672.093 779.623,675.76 780,679.5C778,682.833 776,686.167 774,689.5C773.107,690.711 772.274,690.711 771.5,689.5C759.35,637.252 747.517,584.918 736,532.5C686.762,505.883 637.429,479.549 588,453.5C585.42,443.609 583.754,433.609 583,423.5C585.442,420.952 587.108,417.952 588,414.5C589.932,406.242 591.432,397.909 592.5,389.5C612.987,374.736 618.32,355.569 608.5,332C623.306,310.37 627.139,286.87 620,261.5C617.467,252.762 613.133,245.095 607,238.5C605.517,230.006 600.683,224.173 592.5,221C583.781,218.012 574.781,216.679 565.5,217C554.52,205.887 541.187,199.553 525.5,198C497.586,194.14 472.92,201.14 451.5,219C421.214,225.288 404.047,243.788 400,274.5C396.996,295.992 402.163,315.159 415.5,332C407.825,348.753 409.325,364.586 420,379.5C422.871,383.016 426.371,385.683 430.5,387.5C432.471,396.459 434.304,405.459 436,414.5C437.72,418.768 439.553,422.935 441.5,427C439.794,435.861 437.961,444.694 436,453.5C387.211,479.97 338.211,505.97 289,531.5C277.131,583.174 265.131,634.841 253,686.5C252.751,687.624 252.251,688.624 251.5,689.5C248.454,686.615 245.954,683.282 244,679.5C244.48,675.499 245.313,671.499 246.5,667.5C243.428,667.817 240.428,667.484 237.5,666.5C233.748,659.498 230.415,652.332 227.5,645C235.827,644.5 244.16,644.334 252.5,644.5C253.007,640.14 253.673,635.807 254.5,631.5C243.861,631.373 233.195,631.04 222.5,630.5C219.017,621.719 216.35,612.719 214.5,603.5L261.5,603.5C261.954,599.185 262.954,595.019 264.5,591C246.833,590.667 229.167,590.333 211.5,590C208.786,581.284 207.453,572.451 207.5,563.5C208.607,562.978 209.774,562.645 211,562.5C230.474,562.756 250.307,562.756 270.5,562.5C271.815,557.906 272.815,553.239 273.5,548.5L204.5,548.5C203.646,539.195 203.313,529.861 203.5,520.5C230.835,520.667 258.169,520.5 285.5,520C294.657,515.588 303.657,510.922 312.5,506C276.168,505.5 239.835,505.333 203.5,505.5C203.434,496.148 203.768,486.815 204.5,477.5C258.834,477.667 313.168,477.5 367.5,477C376.475,473.516 384.808,469.016 392.5,463.5C330.833,462.833 269.167,462.167 207.5,461.5C209.295,453.193 210.961,444.859 212.5,436.5C284.026,436.565 355.693,436.398 427.5,436C428.419,431.574 429.086,427.074 429.5,422.5C384.208,422.257 339.041,422.257 294,422.5C268.566,421.838 243.066,421.171 217.5,420.5C220.047,411.859 223.381,403.526 227.5,395.5C290.833,394.833 354.167,394.167 417.5,393.5C413.458,389.46 409.791,385.127 406.5,380.5C349.17,379.667 291.836,379.167 234.5,379C238.634,371.371 242.967,363.871 247.5,356.5C297.829,355.5 348.162,355.167 398.5,355.5C398.411,352.291 398.744,349.125 399.5,346C399.357,343.849 398.357,342.182 396.5,341C350.167,340.667 303.833,340.333 257.5,340C263.118,332.047 269.118,324.38 275.5,317C302.209,316.825 328.876,316.325 355.5,315.5C356.939,316.063 358.439,316.397 360,316.5C370.833,315.914 381.667,315.247 392.5,314.5C391.026,310.269 390.026,305.936 389.5,301.5C355.832,301.667 322.165,301.5 288.5,301C295.5,292.667 303.167,285 311.5,278C337.173,277.833 362.84,277.333 388.5,276.5C389.385,271.874 390.051,267.207 390.5,262.5C370.831,262.667 351.164,262.5 331.5,262C342.295,253.879 353.628,246.545 365.5,240C377.763,238.727 390.097,238.06 402.5,238C405.416,233.08 409.082,228.747 413.5,225C408.833,224.667 404.167,224.333 399.5,224C416.404,215.81 434.07,209.81 452.5,206C462.847,196.827 474.847,190.827 488.5,188C488.957,187.586 489.291,187.086 489.5,186.5C486.544,180.75 483.21,175.25 479.5,170C371.195,185.874 286.695,239.04 226,329.5C195.436,376.73 177.269,428.396 171.5,484.5C171.667,486.5 171.833,488.5 172,490.5C187.982,500.755 191.648,514.421 183,531.5C179.658,535.174 175.992,538.508 172,541.5C175.587,588.681 187.087,633.848 206.5,677C204.35,679.704 202.184,679.871 200,677.5C195.882,668.763 191.382,660.263 186.5,652C184.833,651.167 183.167,650.333 181.5,649.5C174.696,651.243 167.862,652.909 161,654.5C158.786,654.089 157.453,652.755 157,650.5C143.677,611.552 135.344,571.552 132,530.5C131.626,529.584 131.126,528.75 130.5,528C126.442,527.66 122.442,526.993 118.5,526C110.598,519.013 110.598,512.013 118.5,505C122.751,503.805 127.085,503.305 131.5,503.5C140.886,387.606 189.886,292.772 278.5,219C341.957,169.833 413.957,141.833 494.5,135C495.931,134.535 497.097,133.701 498,132.5C499.501,128.494 501.001,124.494 502.5,120.5C504.21,119.113 505.877,117.779 507.5,116.5ZM499.5,216.5C514.541,214.772 528.875,217.105 542.5,223.5C543.386,224.325 543.719,225.325 543.5,226.5C531.643,230.425 519.977,234.925 508.5,240C512.692,242.885 517.358,244.552 522.5,245C529.167,245.667 535.833,245.667 542.5,245C554.528,241.935 566.528,238.768 578.5,235.5C581.83,235.912 584.83,237.078 587.5,239C574.261,245.953 560.261,250.62 545.5,253C523.142,255.83 502.476,251.33 483.5,239.5C479.655,241.465 477.821,244.465 478,248.5C494.254,264.245 513.587,271.912 536,271.5C548.366,270.576 560.366,267.909 572,263.5C572.167,263.833 572.333,264.167 572.5,264.5C558.855,278.389 542.188,285.055 522.5,284.5C501.292,285.478 484.459,277.478 472,260.5C473.335,271.999 478.502,281.499 487.5,289C491.332,291.75 495.332,294.25 499.5,296.5C500.521,297.002 500.688,297.668 500,298.5C483.124,295.075 469.791,286.409 460,272.5C449.742,256.62 451.576,242.454 465.5,230C476.055,223.211 487.388,218.711 499.5,216.5ZM437.5,243.5C438.097,243.735 438.43,244.235 438.5,245C434.246,255.635 433.913,266.302 437.5,277C432.357,291.022 429.523,305.522 429,320.5C415.11,298.638 414.11,276.304 426,253.5C429.438,249.559 433.271,246.225 437.5,243.5ZM594.5,318.5C595.65,305.684 596.65,292.851 597.5,280C597.566,274.239 596.899,268.572 595.5,263C596.196,261.107 597.03,259.274 598,257.5C608.093,278.545 606.926,298.878 594.5,318.5ZM450.5,292.5C474.362,316.144 503.029,324.644 536.5,318C541.543,316.822 546.543,315.489 551.5,314C559.716,310.39 567.716,306.557 575.5,302.5C575.257,318.952 578.59,334.619 585.5,349.5C583.853,361.426 580.353,372.759 575,383.5C573.513,393.602 571.513,403.602 569,413.5C566.516,419.804 563.016,425.47 558.5,430.5C551.018,436.814 543.685,443.314 536.5,450C522.755,462.072 508.088,463.405 492.5,454C482.965,444.796 473.132,435.963 463,427.5C460.268,423.759 457.934,419.759 456,415.5C453.03,404.982 450.696,394.316 449,383.5C444.09,372.197 440.257,360.53 437.5,348.5C445.887,330.806 450.221,312.139 450.5,292.5ZM457.5,448.5C462.383,455.184 466.55,462.184 470,469.5C465.299,465.134 460.966,460.467 457,455.5C456.444,453.115 456.61,450.782 457.5,448.5ZM454.5,467.5C467.085,479.407 480.085,491.074 493.5,502.5C486.423,510.742 479.923,519.409 474,528.5C467,517.5 460,506.5 453,495.5C453.386,486.187 453.886,476.854 454.5,467.5ZM568.5,468.5C570.575,477.596 571.408,486.929 571,496.5C564.333,507.167 557.667,517.833 551,528.5C544.308,519.975 537.808,511.308 531.5,502.5C544.435,491.858 556.768,480.525 568.5,468.5ZM443.5,612.5C434.339,599.542 424.672,586.875 414.5,574.5C413.675,573.614 412.675,573.281 411.5,573.5C413.359,578.223 415.526,582.89 418,587.5C424.332,596.159 430.165,605.159 435.5,614.5C434.132,615.594 432.965,615.26 432,613.5C420.489,598.461 408.989,583.461 397.5,568.5C407.549,557.292 417.883,546.292 428.5,535.5C419.527,526.861 410.527,518.194 401.5,509.5C406.081,504.541 411.081,500.041 416.5,496C421.49,494.335 425.99,491.835 430,488.5C430.333,489.5 430.667,490.5 431,491.5C432.502,514.203 434.335,536.87 436.5,559.5C431.06,559.426 429.56,561.759 432,566.5C437.81,570.743 440.143,576.409 439,583.5C433.125,577.293 427.625,570.793 422.5,564C420.677,563.868 419.677,564.868 419.5,567C424.319,573.823 429.152,580.656 434,587.5C435.798,589.972 438.132,591.639 441,592.5C442.442,599.096 443.276,605.763 443.5,612.5ZM593.5,488.5C598.473,491.321 603.473,494.155 608.5,497C612.978,501.401 617.645,505.568 622.5,509.5C613.309,518.192 604.309,527.025 595.5,536C605.638,546.973 615.972,557.806 626.5,568.5C614.524,584.31 602.358,599.976 590,615.5C590.694,612.083 592.027,608.749 594,605.5C600.417,597.006 606.083,588.006 611,578.5C611.667,577.167 611.667,575.833 611,574.5C599.216,586.749 588.882,600.082 580,614.5C580.685,607.193 581.519,599.86 582.5,592.5C585.959,591.564 588.793,589.564 591,586.5C595.5,580.167 600,573.833 604.5,567.5C604.131,565.61 603.131,564.776 601.5,565C595.647,571.352 589.98,577.852 584.5,584.5C584.167,584.333 583.833,584.167 583.5,584C584.274,581.595 584.774,579.095 585,576.5C587.465,571.731 590.298,567.231 593.5,563C592.314,560.569 590.314,559.403 587.5,559.5C589.873,535.868 591.873,512.201 593.5,488.5ZM376.5,515.5C384.404,522.737 392.071,530.404 399.5,538.5C391.167,548.5 382.833,558.5 374.5,568.5C377.415,573.998 380.581,579.332 384,584.5C391.866,594.4 399.366,604.566 406.5,615C405.833,615.667 405.167,615.667 404.5,615C393.703,599.27 378.703,592.103 359.5,593.5C358.572,592.232 358.405,590.899 359,589.5C366.086,590.646 373.253,590.812 380.5,590C381.683,587.845 381.35,585.845 379.5,584C371.096,583.788 362.762,582.954 354.5,581.5C353.833,580.167 353.167,578.833 352.5,577.5C359.472,576.502 366.472,575.835 373.5,575.5C373.714,573.856 373.38,572.356 372.5,571C361.839,570.5 351.172,570.333 340.5,570.5C342.059,586.809 342.893,603.143 343,619.5C338.135,603.904 333.468,588.237 329,572.5C324.599,571.533 320.099,571.2 315.5,571.5C316.153,575.889 316.653,580.223 317,584.5C314.957,582.792 313.29,580.792 312,578.5C311.296,580.278 310.796,582.112 310.5,584C314.244,591.321 317.577,598.821 320.5,606.5C320.333,606.833 320.167,607.167 320,607.5C316.333,603.167 312.667,598.833 309,594.5C308.014,596.778 307.18,599.111 306.5,601.5C310.75,607.665 314.75,613.998 318.5,620.5C318.167,621.5 317.5,622.167 316.5,622.5C313.559,618.056 310.059,614.056 306,610.5C303.924,613.217 303.257,616.217 304,619.5C306.652,624.637 309.152,629.803 311.5,635C309.976,636.194 308.81,637.694 308,639.5C306.989,635.632 305.489,631.966 303.5,628.5C302.833,627.167 302.167,627.167 301.5,628.5C297.058,646.104 292.391,663.604 287.5,681C287.167,681.167 286.833,681.333 286.5,681.5C285.353,679.235 285.186,676.902 286,674.5C294.462,633.856 302.796,593.189 311,552.5C333.107,540.533 354.94,528.2 376.5,515.5ZM645.5,515.5C668.021,527.68 690.521,540.013 713,552.5C721.2,595.169 730.034,637.669 739.5,680C738.437,681.188 737.103,681.688 735.5,681.5C731.759,663.201 727.092,645.201 721.5,627.5C718.018,631.434 716.185,636.1 716,641.5C715.487,638.973 714.32,636.807 712.5,635C714.864,629.772 717.364,624.606 720,619.5C720.755,616.697 720.422,614.03 719,611.5C718.282,610.549 717.449,610.383 716.5,611C713,615.167 709.5,619.333 706,623.5C705.333,622.167 705.333,620.833 706,619.5C710.046,613.403 713.546,607.07 716.5,600.5C716.431,598.291 715.764,596.291 714.5,594.5C711.19,598.978 707.69,603.311 704,607.5C703.927,604.842 704.26,602.176 705,599.5C708.251,594.577 711.085,589.41 713.5,584C713.122,582.365 712.456,580.865 711.5,579.5C709.768,581.283 708.268,583.283 707,585.5C707.44,581.188 707.773,576.855 708,572.5C703.882,571.202 699.715,571.202 695.5,572.5C690.952,588.307 686.119,603.973 681,619.5C681.246,603.113 682.413,586.78 684.5,570.5C673.495,570.333 662.495,570.5 651.5,571C650.009,573.022 650.342,574.688 652.5,576C659.167,576.333 665.833,576.667 672.5,577C671.944,579.237 670.944,581.237 669.5,583C661.167,583.333 652.833,583.667 644.5,584C643.139,585.584 642.472,587.418 642.5,589.5C650.805,590.332 659.138,590.665 667.5,590.5L667.5,593.5C660.56,594.722 653.56,595.556 646.5,596C642.363,596.934 638.363,598.268 634.5,600C628.698,604.8 623.198,609.967 618,615.5C617.333,614.833 617.333,614.167 618,613.5C629.616,599.101 640.116,583.934 649.5,568C645.225,562.053 640.558,556.387 635.5,551C655.831,550.5 676.164,550.333 696.5,550.5L696.5,545.5C674.439,544.378 652.439,544.211 630.5,545C627.726,542.936 625.893,540.436 625,537.5C632.406,530.598 639.239,523.265 645.5,515.5ZM452.5,527.5C458.743,537.594 465.243,547.594 472,557.5C479.071,549.026 485.405,540.026 491,530.5C493.28,534.447 495.947,538.113 499,541.5C495.559,564.814 491.893,588.147 488,611.5C487.682,613.061 486.849,614.228 485.5,615C482.333,615.167 479.167,615.333 476,615.5C472.397,615.45 469.064,614.783 466,613.5C461.388,584.828 456.888,556.161 452.5,527.5ZM570.5,530.5C566.788,558.562 562.621,586.562 558,614.5C551.556,615.81 545.056,615.81 538.5,614.5C533.786,589.885 529.62,565.218 526,540.5C528.333,537.5 530.667,534.5 533,531.5C539.268,540.384 545.768,549.051 552.5,557.5C558.262,548.299 564.262,539.299 570.5,530.5ZM501.5,565.5C502.158,566.793 502.492,568.293 502.5,570C500.822,585.237 498.655,600.404 496,615.5C497.032,598.771 498.865,582.104 501.5,565.5ZM366.5,631.5C403.429,632.327 440.429,632.827 477.5,633C463.641,637.841 450.308,643.841 437.5,651C411.5,651.333 385.5,651.667 359.5,652C344.591,655.909 335.425,665.409 332,680.5C329.791,688.377 328.291,696.377 327.5,704.5C319.876,705.398 312.209,705.731 304.5,705.5C304.859,685.594 310.692,667.594 322,651.5C334.054,638.385 348.888,631.718 366.5,631.5ZM659.5,631.5C685.316,633.474 703.149,646.474 713,670.5C716.005,682.022 718.171,693.689 719.5,705.5L696.5,705.5C695.494,689.779 690.66,675.445 682,662.5C677.345,657.087 671.512,653.587 664.5,652C638.167,651.667 611.833,651.333 585.5,651C573.186,642.845 559.853,636.845 545.5,633C583.669,632.833 621.669,632.333 659.5,631.5ZM499.5,650.5C553.554,648.757 592.387,672.091 616,720.5C634.202,766.617 627.535,808.617 596,846.5C560.213,881.902 518.379,891.402 470.5,875C419.946,851.424 395.78,811.591 398,755.5C407.326,696.676 441.159,661.676 499.5,650.5ZM365.5,663.5C383.512,663.167 401.512,663.5 419.5,664.5C415.015,669.485 410.349,674.319 405.5,679C395.167,679.333 384.833,679.667 374.5,680C363.31,684.186 357.977,692.353 358.5,704.5L341.5,704.5C341.995,693.522 344.828,683.188 350,673.5C353.9,667.98 359.067,664.647 365.5,663.5ZM603.5,663.5C622.17,663.333 640.836,663.5 659.5,664C667.808,666.304 673.641,671.471 677,679.5C679.944,687.608 681.778,695.942 682.5,704.5L665.5,704.5C665.252,687.752 656.752,679.085 640,678.5C632.181,679.3 624.681,679.466 617.5,679C612.917,673.592 608.25,668.426 603.5,663.5ZM214.5,691.5C226.644,710.16 239.811,728.16 254,745.5C281.341,775.857 312.507,801.357 347.5,822C359.833,822.333 372.167,822.667 384.5,823C386.294,826.088 387.961,829.254 389.5,832.5C383.144,833.204 376.81,833.87 370.5,834.5C368.047,836.996 367.88,839.662 370,842.5C378.088,843.317 386.255,843.817 394.5,844C397.444,846.722 399.777,849.889 401.5,853.5C391.833,853.833 382.167,854.167 372.5,854.5C361.765,854.632 351.098,854.132 340.5,853C285.843,823.695 239.676,784.195 202,734.5C194.417,723.002 187.083,711.335 180,699.5C179.251,698.365 179.417,697.365 180.5,696.5C186.594,693.679 192.594,693.846 198.5,697C204.736,697.712 210.069,695.878 214.5,691.5ZM379.5,691.5C385.206,691.171 390.872,691.505 396.5,692.5C394.501,694.493 393.001,696.827 392,699.5C388.611,699.703 385.111,699.87 381.5,700C379.5,700.667 378.167,702 377.5,704C375.19,704.497 372.857,704.663 370.5,704.5C370.84,698.184 373.84,693.851 379.5,691.5ZM627.5,691.5C634.257,691.123 640.924,691.623 647.5,693C650.268,695.869 652.268,699.202 653.5,703C651.386,704.518 649.053,704.851 646.5,704C645.833,702 644.5,700.667 642.5,700C634.855,701.271 629.855,698.437 627.5,691.5ZM809.5,691.5C814.436,694.216 819.603,696.549 825,698.5C828.679,697.159 832.345,695.826 836,694.5C839.399,694.792 842.232,696.125 844.5,698.5C805.971,766.531 751.971,818.364 682.5,854C663.01,854.457 643.676,854.623 624.5,854.5C623.833,854.167 623.167,853.833 622.5,853.5C624.711,850.244 627.045,847.078 629.5,844C648.833,843.667 668.167,843.333 687.5,843C691.809,840.427 692.476,837.094 689.5,833C671.518,833.348 653.518,833.515 635.5,833.5C636.199,830.427 637.199,827.427 638.5,824.5C639.333,824.167 640.167,823.833 641,823.5C653.145,822.716 665.311,822.216 677.5,822C732.948,790.052 776.948,746.552 809.5,691.5ZM270.5,697.5L287.5,697.5C287.276,701.179 286.942,704.846 286.5,708.5C278.796,709.019 271.129,709.019 263.5,708.5C260.727,705.937 258.727,702.937 257.5,699.5C262.028,699.23 266.361,698.563 270.5,697.5ZM736.5,697.5C746.963,697.255 757.296,698.255 767.5,700.5C764.978,703.188 762.644,706.021 760.5,709C752.834,709.223 745.168,709.056 737.5,708.5C737.448,704.802 737.114,701.135 736.5,697.5ZM339.5,718.5C354.182,718.167 368.848,718.501 383.5,719.5C382.065,722.643 380.732,725.81 379.5,729C346.5,729.667 313.5,729.667 280.5,729C277.794,726.629 275.461,723.963 273.5,721C295.655,720.046 317.655,719.213 339.5,718.5ZM640.5,718.5C676.834,718.875 713.5,719.542 750.5,720.5C750.649,721.552 750.483,722.552 750,723.5C748.041,724.748 746.541,726.415 745.5,728.5C711.5,729.833 677.5,729.833 643.5,728.5C642.484,725.145 641.484,721.812 640.5,718.5ZM335.5,738.5C349.532,738.209 363.532,738.709 377.5,740C376.009,742.621 375.342,745.455 375.5,748.5C349.998,748.813 324.331,748.98 298.5,749C296.205,745.703 293.538,742.703 290.5,740C305.672,739.831 320.672,739.331 335.5,738.5ZM646.5,738.5C675.502,738.816 704.502,739.316 733.5,740C730.5,743 727.5,746 724.5,749C707.013,748.549 689.513,748.716 672,749.5C664.167,749.167 656.333,748.833 648.5,748.5C647.618,745.209 646.952,741.876 646.5,738.5ZM310.5,761.5C331.66,760.503 352.993,760.169 374.5,760.5C374.784,763.777 374.451,766.943 373.5,770C355.491,770.833 337.491,770.666 319.5,769.5C317.1,766.097 314.1,763.43 310.5,761.5ZM649.5,760.5C670.844,760.167 692.177,760.5 713.5,761.5C710.314,764.521 706.98,767.354 703.5,770C685.503,770.5 667.503,770.667 649.5,770.5L649.5,760.5ZM335.5,780.5L374.5,780.5C374.833,783.833 375.167,787.167 375.5,790.5C365.161,790.666 354.828,790.5 344.5,790C341.218,786.891 338.218,783.724 335.5,780.5ZM649.5,780.5C662.923,780.215 675.923,780.548 688.5,781.5C685.393,784.56 682.059,787.394 678.5,790C668.506,790.5 658.506,790.666 648.5,790.5C648.253,787.061 648.586,783.728 649.5,780.5ZM355.5,800.5C362.049,801.526 369.049,801.692 376.5,801C378.613,804.173 379.613,807.673 379.5,811.5C374.489,811.666 369.489,811.499 364.5,811C360.893,807.902 357.893,804.402 355.5,800.5ZM646.5,800.5C653.014,800.6 659.348,800.6 665.5,800.5C666.5,800.833 667.167,801.5 667.5,802.5C665.016,805.484 662.35,808.318 659.5,811C654.167,811.667 648.833,811.667 643.5,811C644.69,807.544 645.69,804.044 646.5,800.5ZM367.5,866.5C370.649,865.835 373.982,865.502 377.5,865.5C389.497,866.077 401.497,866.577 413.5,867C418.808,871.638 424.141,876.304 429.5,881C420.407,881.708 411.407,881.041 402.5,879C390.772,874.925 379.105,870.758 367.5,866.5ZM647.5,865.5C650.697,865.665 654.03,865.831 657.5,866C641.055,873.817 623.888,878.984 606,881.5C602.924,880.712 599.758,880.212 596.5,880C601.5,875.667 606.5,871.333 611.5,867C623.674,866.831 635.674,866.331 647.5,865.5Z" style="fill-opacity:0.94;"/>
                </g>
                <g transform="matrix(1.22259,0,0,1.22259,-114.109,-114.685)">
                    <path d="M509.5,141.5C522.991,141.825 530.657,148.658 532.5,162C529.904,178.262 520.571,184.596 504.5,181C491.674,173.207 488.841,162.707 496,149.5C499.897,145.641 504.397,142.975 509.5,141.5Z" style="fill-opacity:0.94;"/>
                </g>
                <g transform="matrix(1.22259,0,0,1.22259,-114.109,-114.685)">
                    <path d="M460.5,153.5C466.326,153.157 468.826,155.824 468,161.5C463.164,166.571 459.331,165.738 456.5,159C457.007,156.455 458.341,154.621 460.5,153.5Z" style="fill-opacity:0.81;"/>
                </g>
                <g transform="matrix(1.22259,0,0,1.22259,-114.109,-114.685)">
                    <path d="M566.5,155.5C577.399,156.447 588.066,158.613 598.5,162C602.591,166.343 601.758,169.509 596,171.5C586.603,168.62 577.103,166.12 567.5,164C566.257,162.846 565.257,161.512 564.5,160C565.267,158.53 565.933,157.03 566.5,155.5Z" style="fill-opacity:0.81;"/>
                </g>
                <g transform="matrix(1.22259,0,0,1.22259,-114.109,-114.685)">
                    <path d="M442.5,158.5C449.444,158.272 451.11,161.106 447.5,167C439.753,167.669 438.086,164.836 442.5,158.5Z" style="fill-opacity:0.76;"/>
                </g>
                <g transform="matrix(1.22259,0,0,1.22259,-114.109,-114.685)">
                    <path d="M425.5,162.5C432.02,162.717 433.687,165.551 430.5,171C426.4,173.436 423.733,172.27 422.5,167.5C423.26,165.64 424.26,163.973 425.5,162.5Z" style="fill-opacity:0.71;"/>
                </g>
                <g transform="matrix(1.22259,0,0,1.22259,-114.109,-114.685)">
                    <path d="M408.5,167.5C414.556,167.281 416.39,169.948 414,175.5C411.92,177.973 409.754,177.973 407.5,175.5C406.447,174.562 405.78,173.395 405.5,172C406.315,170.357 407.315,168.857 408.5,167.5Z" style="fill-opacity:0.74;"/>
                </g>
                <g transform="matrix(1.22259,0,0,1.22259,-114.109,-114.685)">
                    <path d="M613.5,167.5C622.889,167.676 624.556,171.176 618.5,178C614.403,178.422 611.736,176.589 610.5,172.5C611.26,170.64 612.26,168.973 613.5,167.5Z" style="fill-opacity:0.73;"/>
                </g>
                <g transform="matrix(1.22259,0,0,1.22259,-114.109,-114.685)">
                    <path d="M390.5,172.5C398.346,172.694 400.346,176.194 396.5,183C391.619,184.68 388.286,183.18 386.5,178.5C387.467,176.21 388.8,174.21 390.5,172.5Z" style="fill-opacity:0.8;"/>
                </g>
                <g transform="matrix(1.22259,0,0,1.22259,-114.109,-114.685)">
                    <path d="M634.5,174.5C642.35,174.229 644.684,177.562 641.5,184.5C636.046,186.935 632.712,185.268 631.5,179.5C631.757,177.308 632.757,175.641 634.5,174.5Z" style="fill-opacity:0.73;"/>
                </g>
                <g transform="matrix(1.22259,0,0,1.22259,-114.109,-114.685)">
                    <path d="M362.5,184.5C365.119,184.232 367.619,184.565 370,185.5C370.309,186.766 370.809,187.933 371.5,189C370.929,190.205 370.262,191.372 369.5,192.5C360.041,197.063 350.708,201.896 341.5,207C337.3,208.31 334.633,206.81 333.5,202.5C334.04,201.252 334.707,200.085 335.5,199C344.562,194.138 353.562,189.305 362.5,184.5Z" style="fill-opacity:0.82;"/>
                </g>
                <g transform="matrix(1.22259,0,0,1.22259,-114.109,-114.685)">
                    <path d="M679.5,195.5C681.989,195.298 684.323,195.798 686.5,197C692.566,201.395 698.9,205.395 705.5,209C710.07,212.069 710.404,215.402 706.5,219C705.167,219.667 703.833,219.667 702.5,219C695.167,214.333 687.833,209.667 680.5,205C676.956,202.127 676.623,198.96 679.5,195.5Z" style="fill-opacity:0.83;"/>
                </g>
                <g transform="matrix(1.22259,0,0,1.22259,-114.109,-114.685)">
                    <path d="M318.5,208.5C324.862,209.038 327.028,212.371 325,218.5C319.652,222.755 315.818,221.588 313.5,215C314.283,212.062 315.95,209.896 318.5,208.5Z" style="fill-opacity:0.76;"/>
                </g>
                <g transform="matrix(1.22259,0,0,1.22259,-114.109,-114.685)">
                    <path d="M299.5,222.5C306,221.499 308.5,224.165 307,230.5C303.667,234.5 300.333,234.5 297,230.5C296.023,227.183 296.856,224.516 299.5,222.5Z" style="fill-opacity:0.8;"/>
                </g>
                <g transform="matrix(1.22259,0,0,1.22259,-114.109,-114.685)">
                    <path d="M720.5,222.5C722.989,222.298 725.323,222.798 727.5,224C736.5,231.667 745.5,239.333 754.5,247C757.299,249.123 759.299,251.79 760.5,255C758.142,260.203 754.809,260.87 750.5,257C740.094,247.715 729.594,238.549 719,229.5C718.391,226.935 718.891,224.601 720.5,222.5Z" style="fill-opacity:0.84;"/>
                </g>
                <g transform="matrix(1.22259,0,0,1.22259,-114.109,-114.685)">
                    <path d="M283.5,234.5C288.151,233.814 290.817,235.814 291.5,240.5C287.391,248.327 283.391,248.327 279.5,240.5C280.361,238.089 281.694,236.089 283.5,234.5Z" style="fill-opacity:0.77;"/>
                </g>
                <g transform="matrix(1.22259,0,0,1.22259,-114.109,-114.685)">
                    <path d="M267.5,248.5C273.326,248.157 275.826,250.824 275,256.5C271.905,260.327 268.905,260.327 266,256.5C265.109,253.502 265.609,250.836 267.5,248.5Z" style="fill-opacity:0.79;"/>
                </g>
                <g transform="matrix(1.22259,0,0,1.22259,-114.109,-114.685)">
                    <path d="M254.5,262.5C260.329,263.197 262.162,266.197 260,271.5C251.833,280.333 243.667,289.167 235.5,298C229.96,298.443 228.127,295.943 230,290.5C237.316,280.356 245.482,271.022 254.5,262.5Z" style="fill-opacity:0.85;"/>
                </g>
                <g transform="matrix(1.22259,0,0,1.22259,-114.109,-114.685)">
                    <path d="M768.5,263.5C771.849,264.259 774.682,265.926 777,268.5C794.285,287.28 809.451,307.614 822.5,329.5C820.295,335.178 817.128,335.845 813,331.5C799.576,310.402 784.243,290.735 767,272.5C764.801,268.978 765.301,265.978 768.5,263.5Z" style="fill-opacity:0.81;"/>
                </g>
                <g transform="matrix(1.22259,0,0,1.22259,-114.109,-114.685)">
                    <path d="M219.5,303.5C224.296,303.124 227.296,305.291 228.5,310C225.664,316.1 221.83,316.933 217,312.5C215.927,308.9 216.76,305.9 219.5,303.5Z" style="fill-opacity:0.81;"/>
                </g>
                <g transform="matrix(1.22259,0,0,1.22259,-114.109,-114.685)">
                    <path d="M209.5,320.5C215.356,320.854 217.523,323.854 216,329.5C213.029,333.092 209.696,333.425 206,330.5C204.756,326.191 205.923,322.858 209.5,320.5Z" style="fill-opacity:0.81;"/>
                </g>
                <g transform="matrix(1.22259,0,0,1.22259,-114.109,-114.685)">
                    <path d="M456.5,335.5C461.067,339.559 466.067,343.059 471.5,346C480.136,347.745 488.803,349.079 497.5,350C501.627,360.402 497.96,365.568 486.5,365.5C475.835,365.973 467.002,362.307 460,354.5C457.551,348.112 456.384,341.779 456.5,335.5Z" style="fill-opacity:0.88;"/>
                </g>
                <g transform="matrix(1.22259,0,0,1.22259,-114.109,-114.685)">
                    <path d="M565.5,335.5C570.088,352.413 563.421,362.246 545.5,365C541.911,365.207 538.411,365.707 535,366.5C533.989,365.663 532.822,365.33 531.5,365.5C531.955,381.904 531.455,398.237 530,414.5C522.452,421.276 513.952,422.776 504.5,419C498.84,414.019 499.174,409.686 505.5,406C508.482,405.502 511.482,405.335 514.5,405.5C514.333,392.829 514.5,380.162 515,367.5C519.137,361.396 523.637,355.563 528.5,350C536.199,349.02 543.866,347.687 551.5,346C557.238,343.662 561.905,340.162 565.5,335.5Z" style="fill-opacity:0.91;"/>
                </g>
                <g transform="matrix(1.22259,0,0,1.22259,-114.109,-114.685)">
                    <path d="M197.5,339.5C206.052,340.005 208.052,343.838 203.5,351C196,352.833 193.167,350 195,342.5C196.045,341.627 196.878,340.627 197.5,339.5Z" style="fill-opacity:0.82;"/>
                </g>
                <g transform="matrix(1.22259,0,0,1.22259,-114.109,-114.685)">
                    <path d="M824.5,341.5C831.413,342.198 833.08,345.364 829.5,351C822.574,350.994 820.908,347.827 824.5,341.5Z" style="fill-opacity:0.66;"/>
                </g>
                <g transform="matrix(1.22259,0,0,1.22259,-114.109,-114.685)">
                    <path d="M187.5,359.5C192.653,358.326 195.653,360.326 196.5,365.5C193.889,372.05 190.055,373.05 185,368.5C183.402,364.979 184.236,361.979 187.5,359.5Z" style="fill-opacity:0.77;"/>
                </g>
                <g transform="matrix(1.22259,0,0,1.22259,-114.109,-114.685)">
                    <path d="M834.5,359.5C839.021,359.687 841.688,362.02 842.5,366.5C839.939,373.041 836.106,374.041 831,369.5C829.581,365.082 830.748,361.749 834.5,359.5Z" style="fill-opacity:0.73;"/>
                </g>
                <g transform="matrix(1.22259,0,0,1.22259,-114.109,-114.685)">
                    <path d="M179.5,378.5C184.078,378.239 186.744,380.406 187.5,385C185.088,391.646 181.254,392.813 176,388.5C174.756,384.191 175.923,380.858 179.5,378.5Z" style="fill-opacity:0.8;"/>
                </g>
                <g transform="matrix(1.22259,0,0,1.22259,-114.109,-114.685)">
                    <path d="M841.5,379.5C847.476,378.825 850.809,381.492 851.5,387.5C849.432,393.891 845.932,394.891 841,390.5C838.965,386.719 839.132,383.052 841.5,379.5Z" style="fill-opacity:0.74;"/>
                </g>
                <g transform="matrix(1.22259,0,0,1.22259,-114.109,-114.685)">
                    <path d="M170.5,401.5C174.756,400.454 177.422,401.954 178.5,406C171.339,427.478 165.505,449.312 161,471.5C159.192,473.396 157.025,473.896 154.5,473C153.056,471.874 152.39,470.374 152.5,468.5C156.17,445.481 162.17,423.148 170.5,401.5Z" style="fill-opacity:0.82;"/>
                </g>
                <g transform="matrix(1.22259,0,0,1.22259,-114.109,-114.685)">
                    <path d="M850.5,401.5C852.467,401.261 854.301,401.594 856,402.5C860.583,414.167 863.583,426.167 865,438.5C861.592,442.483 858.592,442.15 856,437.5C853.575,426.891 850.741,416.391 847.5,406C847.957,404.06 848.957,402.56 850.5,401.5Z" style="fill-opacity:0.78;"/>
                </g>
                <g transform="matrix(1.22259,0,0,1.22259,-114.109,-114.685)">
                    <path d="M864.5,448.5C867.745,449.627 869.578,451.961 870,455.5C871.167,462.5 872.333,469.5 873.5,476.5C873.527,480.134 871.86,482.467 868.5,483.5C866.234,483.069 864.734,481.736 864,479.5C862.228,469.879 861.228,460.212 861,450.5C862.302,449.915 863.469,449.249 864.5,448.5Z" style="fill-opacity:0.79;"/>
                </g>
                <g transform="matrix(1.22259,0,0,1.22259,-114.109,-114.685)">
                    <path d="M152.5,495.5C167.123,494.473 175.79,501.14 178.5,515.5C176.345,529.907 168.012,536.74 153.5,536C138.357,529.878 134.19,519.378 141,504.5C144.158,500.493 147.992,497.493 152.5,495.5Z" style="fill-opacity:0.92;"/>
                </g>
                <g transform="matrix(1.22259,0,0,1.22259,-114.109,-114.685)">
                    <path d="M863.5,495.5C880.955,495.456 888.789,504.123 887,521.5C880.918,535.974 870.752,539.807 856.5,533C844.513,521.578 844.513,510.245 856.5,499C858.925,497.787 861.259,496.621 863.5,495.5Z" style="fill-opacity:0.92;"/>
                </g>
                <g transform="matrix(1.22259,0,0,1.22259,-114.109,-114.685)">
                    <path d="M331.5,544.5C347.837,544.333 364.17,544.5 380.5,545C382.767,546.081 382.934,547.581 381,549.5C363.243,550.492 345.41,550.826 327.5,550.5L327.5,545.5C329.099,545.768 330.432,545.434 331.5,544.5Z" style="fill-opacity:0.77;"/>
                </g>
                <g transform="matrix(1.22259,0,0,1.22259,-114.109,-114.685)">
                    <path d="M154.5,548.5C160.808,550.794 161.142,553.794 155.5,557.5C151.912,554.888 151.579,551.888 154.5,548.5Z" style="fill-opacity:0.64;"/>
                </g>
                <g transform="matrix(1.22259,0,0,1.22259,-114.109,-114.685)">
                    <path d="M866.5,549.5C872.488,549.664 873.821,552.164 870.5,557C864.865,556.899 863.532,554.399 866.5,549.5Z" style="fill-opacity:0.61;"/>
                </g>
                <g transform="matrix(1.22259,0,0,1.22259,-114.109,-114.685)">
                    <path d="M331.5,556.5L375.5,556.5C375.256,559.263 373.923,561.429 371.5,563C358.501,564.557 345.501,564.391 332.5,562.5C331.652,560.591 331.318,558.591 331.5,556.5Z" style="fill-opacity:0.76;"/>
                </g>
                <g transform="matrix(1.22259,0,0,1.22259,-114.109,-114.685)">
                    <path d="M646.5,556.5L692.5,556.5C692.326,558.861 691.993,561.194 691.5,563.5C678.163,563.667 664.829,563.5 651.5,563C649.242,561.247 647.575,559.081 646.5,556.5Z" style="fill-opacity:0.76;"/>
                </g>
                <g transform="matrix(1.22259,0,0,1.22259,-114.109,-114.685)">
                    <path d="M863.5,564.5C867.558,563.692 870.224,565.192 871.5,569C870.589,574.224 869.422,579.391 868,584.5C864.342,587.11 861.509,586.276 859.5,582C860.463,576.04 861.796,570.206 863.5,564.5Z" style="fill-opacity:0.75;"/>
                </g>
                <g transform="matrix(1.22259,0,0,1.22259,-114.109,-114.685)">
                    <path d="M155.5,569.5C160.994,569.157 163.828,571.823 164,577.5C165.915,586.325 167.748,595.158 169.5,604C170.342,607.818 168.842,609.985 165,610.5C161.164,608.387 159.164,605.053 159,600.5C157.356,591.781 155.523,583.114 153.5,574.5C154.456,572.925 155.123,571.258 155.5,569.5Z" style="fill-opacity:0.8;"/>
                </g>
                <g transform="matrix(1.22259,0,0,1.22259,-114.109,-114.685)">
                    <path d="M860.5,594.5C868.297,599.418 868.131,604.418 860,609.5C854.062,606.347 853.062,602.013 857,596.5C858.302,595.915 859.469,595.249 860.5,594.5Z" style="fill-opacity:0.72;"/>
                </g>
                <g transform="matrix(1.22259,0,0,1.22259,-114.109,-114.685)">
                    <path d="M853.5,616.5C857.145,615.68 859.478,617.013 860.5,620.5C859.28,626.046 857.447,631.38 855,636.5C849.388,638.996 847.054,637.329 848,631.5C848.774,626.041 850.608,621.041 853.5,616.5Z" style="fill-opacity:0.75;"/>
                </g>
                <g transform="matrix(1.22259,0,0,1.22259,-114.109,-114.685)">
                    <path d="M166.5,617.5C171.539,617.032 174.372,619.365 175,624.5C176.325,628.428 176.658,632.428 176,636.5C172.476,638.766 169.809,637.766 168,633.5C165.676,628.26 165.176,622.927 166.5,617.5Z" style="fill-opacity:0.77;"/>
                </g>
                <g transform="matrix(1.22259,0,0,1.22259,-114.109,-114.685)">
                    <path d="M509.5,661.5C515.038,660.262 518.038,662.429 518.5,668C517.721,674.797 517.221,681.63 517,688.5C510.889,692.283 507.555,690.617 507,683.5C506.333,677.833 506.333,672.167 507,666.5C507.366,664.548 508.199,662.882 509.5,661.5Z" style="fill-opacity:0.83;"/>
                </g>
                <g transform="matrix(1.22259,0,0,1.22259,-114.109,-114.685)">
                    <path d="M457.5,674.5C460.652,673.959 463.152,674.959 465,677.5C468.579,683.491 471.745,689.658 474.5,696C473.157,701.582 470.157,702.749 465.5,699.5C460.959,693.298 457.292,686.631 454.5,679.5C454.757,677.308 455.757,675.641 457.5,674.5Z" style="fill-opacity:0.79;"/>
                </g>
                <g transform="matrix(1.22259,0,0,1.22259,-114.109,-114.685)">
                    <path d="M563.5,674.5C566.848,675.012 569.181,676.845 570.5,680C567.367,685.813 564.2,691.647 561,697.5C556.54,703.103 552.706,702.769 549.5,696.5C552.766,690.059 556.266,683.726 560,677.5C561.145,676.364 562.312,675.364 563.5,674.5Z" style="fill-opacity:0.8;"/>
                </g>
                <g transform="matrix(1.22259,0,0,1.22259,-114.109,-114.685)">
                    <path d="M509.5,695.5C513.937,694.966 517.104,696.633 519,700.5C519.333,718.833 519.667,737.167 520,755.5C545.25,740.125 570.417,724.625 595.5,709C603.813,708.982 607.647,713.148 607,721.5C605.878,723.624 604.378,725.457 602.5,727C563.891,753.277 525.557,779.944 487.5,807C477.026,809.53 472.526,805.364 474,794.5C479.628,787.543 486.461,782.043 494.5,778C497.231,775.374 499.064,772.207 500,768.5C503.346,766.485 505.013,763.485 505,759.5C505.333,739.5 505.667,719.5 506,699.5C507.102,698.051 508.269,696.718 509.5,695.5Z" style="fill-opacity:0.92;"/>
                </g>
                <g transform="matrix(1.22259,0,0,1.22259,-114.109,-114.685)">
                    <path d="M203.5,703.5C205.527,703.338 207.527,703.505 209.5,704C211.207,707.248 213.04,710.415 215,713.5C216.31,717.7 214.81,720.367 210.5,721.5C205.89,717.886 202.89,713.219 201.5,707.5C201.752,705.927 202.418,704.594 203.5,703.5Z" style="fill-opacity:0.76;"/>
                </g>
                <g transform="matrix(1.22259,0,0,1.22259,-114.109,-114.685)">
                    <path d="M812.5,708.5C816.169,707.697 818.836,708.864 820.5,712C819.478,714.545 818.312,717.045 817,719.5C807.577,732.678 797.91,745.678 788,758.5C782.102,761.2 779.435,759.2 780,752.5C791.584,738.308 802.417,723.642 812.5,708.5Z" style="fill-opacity:0.77;"/>
                </g>
                <g transform="matrix(1.22259,0,0,1.22259,-114.109,-114.685)">
                    <path d="M420.5,710.5C422.199,710.34 423.866,710.506 425.5,711C431.753,715.043 437.92,719.21 444,723.5C445.526,729.297 443.359,732.13 437.5,732C431.833,728.333 426.167,724.667 420.5,721C416.713,717.589 416.713,714.089 420.5,710.5Z" style="fill-opacity:0.81;"/>
                </g>
                <g transform="matrix(1.22259,0,0,1.22259,-114.109,-114.685)">
                    <path d="M221.5,726.5C226.786,727.119 229.786,730.119 230.5,735.5C228.945,740.47 225.945,741.637 221.5,739C216.169,734.614 216.169,730.447 221.5,726.5Z" style="fill-opacity:0.71;"/>
                </g>
                <g transform="matrix(1.22259,0,0,1.22259,-114.109,-114.685)">
                    <path d="M235.5,744.5C241.673,746.168 244.506,750.168 244,756.5C242.01,759.722 239.51,760.222 236.5,758C230.67,753.525 230.337,749.025 235.5,744.5Z" style="fill-opacity:0.72;"/>
                </g>
                <g transform="matrix(1.22259,0,0,1.22259,-114.109,-114.685)">
                    <path d="M405.5,764.5C416.505,764.333 427.505,764.5 438.5,765C442.5,768.333 442.5,771.667 438.5,775C427.167,775.667 415.833,775.667 404.5,775C401.54,770.979 401.873,767.479 405.5,764.5Z" style="fill-opacity:0.88;"/>
                </g>
                <g transform="matrix(1.22259,0,0,1.22259,-114.109,-114.685)">
                    <path d="M585.5,764.5C596.505,764.333 607.505,764.5 618.5,765C622.5,768.333 622.5,771.667 618.5,775C607.5,775.667 596.5,775.667 585.5,775C581.605,771.511 581.605,768.011 585.5,764.5Z" style="fill-opacity:0.89;"/>
                </g>
                <g transform="matrix(1.22259,0,0,1.22259,-114.109,-114.685)">
                    <path d="M250.5,765.5C252.527,765.338 254.527,765.505 256.5,766C280.498,789.156 306.832,809.156 335.5,826C339.755,830.408 339.088,833.908 333.5,836.5C302.961,818.807 275.128,797.473 250,772.5C249.444,770.115 249.61,767.782 250.5,765.5Z" style="fill-opacity:0.78;"/>
                </g>
                <g transform="matrix(1.22259,0,0,1.22259,-114.109,-114.685)">
                    <path d="M767.5,765.5C773.496,764.333 775.996,766.666 775,772.5C759.426,787.412 743.259,801.578 726.5,815C720.744,817.569 717.911,815.736 718,809.5C735.289,795.71 751.789,781.044 767.5,765.5Z" style="fill-opacity:0.78;"/>
                </g>
                <g transform="matrix(1.22259,0,0,1.22259,-114.109,-114.685)">
                    <path d="M439.5,808.5C445.456,809.087 447.289,812.087 445,817.5C438.382,822.223 431.548,826.556 424.5,830.5C419.745,829.12 418.412,826.12 420.5,821.5C426.692,816.908 433.025,812.575 439.5,808.5Z" style="fill-opacity:0.8;"/>
                </g>
                <g transform="matrix(1.22259,0,0,1.22259,-114.109,-114.685)">
                    <path d="M582.5,808.5C589.275,812.057 595.942,815.89 602.5,820C606.711,824.333 606.045,827.833 600.5,830.5C593.702,826.933 587.036,823.1 580.5,819C577.402,814.658 578.069,811.158 582.5,808.5Z" style="fill-opacity:0.8;"/>
                </g>
                <g transform="matrix(1.22259,0,0,1.22259,-114.109,-114.685)">
                    <path d="M704.5,816.5C711.009,818.874 712.009,822.708 707.5,828C702.716,830.586 699.383,829.253 697.5,824C698.349,819.988 700.682,817.488 704.5,816.5Z" style="fill-opacity:0.72;"/>
                </g>
                <g transform="matrix(1.22259,0,0,1.22259,-114.109,-114.685)">
                    <path d="M350.5,833.5C355.494,833.329 357.328,835.662 356,840.5C352.201,844.741 349.367,844.075 347.5,838.5C348.26,836.64 349.26,834.973 350.5,833.5Z" style="fill-opacity:0.64;"/>
                </g>
                <g transform="matrix(1.22259,0,0,1.22259,-114.109,-114.685)">
                    <path d="M466.5,839.5C472.496,838.333 474.996,840.666 474,846.5C470.667,852.5 467.333,858.5 464,864.5C456.888,867.386 453.888,865.052 455,857.5C458.594,851.302 462.428,845.302 466.5,839.5Z" style="fill-opacity:0.83;"/>
                </g>
                <g transform="matrix(1.22259,0,0,1.22259,-114.109,-114.685)">
                    <path d="M552.5,839.5C554.527,839.338 556.527,839.505 558.5,840C561.791,844.748 564.958,849.581 568,854.5C572.298,861.495 570.464,865.328 562.5,866C558.712,861.594 555.545,856.761 553,851.5C550.04,847.487 549.873,843.487 552.5,839.5Z" style="fill-opacity:0.84;"/>
                </g>
                <g transform="matrix(1.22259,0,0,1.22259,-114.109,-114.685)">
                    <path d="M510.5,852.5C512.936,852.317 515.103,852.984 517,854.5C517.667,862.833 517.667,871.167 517,879.5C513.393,882.269 510.06,881.936 507,878.5C506.333,871.167 506.333,863.833 507,856.5C507.69,854.65 508.856,853.316 510.5,852.5Z" style="fill-opacity:0.85;"/>
                </g>
            </g>
        </g>
        <g transform="matrix(1.15714,0,0,0.4,-101.086,797.224)">
            <rect x="643.276" y="1328.71" width="1146.05" height="40.93"/>
        </g>
        <g transform="matrix(1.15714,0,0,0.4,-101.086,1160.14)">
            <rect x="643.276" y="1328.71" width="1146.05" height="40.93"/>
        </g>
    </g>
</svg>
